<svg width="19" height="17" viewBox="0 0 19 17" fill="none" xmlns="http://www.w3.org/2000/svg">
<path d="M0.355908 16.0536C0.840663 16.5384 1.56779 16.4825 2.39436 16.1158L17.2291 9.48458C17.6082 9.31678 17.9127 9.13655 18.124 8.92525C18.5653 8.484 18.5653 7.92466 18.1178 7.4772C17.9127 7.27211 17.6082 7.07945 17.2291 6.91165L2.326 0.261808C1.58644 -0.0675769 0.846877 -0.13594 0.362122 0.348815C-0.228284 0.939222 -0.0107659 1.60421 0.411841 2.3997L2.64917 6.60091C2.94748 7.17267 3.2085 7.42126 3.79891 7.43991L17.1359 7.94952C17.3037 7.95574 17.3969 8.07382 17.4031 8.20433C17.4093 8.33484 17.2975 8.44671 17.1421 8.45292L3.80512 8.98739C3.25201 9.01847 2.9537 9.26706 2.64917 9.83261L0.44913 13.9468C0.00166375 14.7672 -0.240714 15.457 0.355908 16.0536Z" fill="white"/>
</svg>
