<svg width="44" height="44" viewBox="0 0 44 44" fill="none" xmlns="http://www.w3.org/2000/svg">
<g clip-path="url(#clip0_1461_35556)">
<path d="M38.3115 36.6667C39.2468 36.6667 39.7567 36.4815 39.922 36.3081C40.1209 36.0996 40.3333 35.4817 40.3333 34.3729V14.2418C40.3333 13.1386 40.124 12.5271 39.9282 12.3227C39.7635 12.1508 39.2523 11.9672 38.3115 11.9672H33.377C30.6108 11.9672 29.2298 10.9814 27.9057 9.38927L26.4559 7.67957C26.2561 7.44712 26.1741 7.39425 26.1774 7.3955C26.1733 7.39382 26.02 7.33341 25.5508 7.33341H18.3224C17.8565 7.33341 17.7021 7.39298 17.7036 7.39147C17.6981 7.39494 17.6172 7.44792 17.4235 7.67238L15.9766 9.39984C14.6728 10.9409 13.245 11.9672 10.5143 11.9672H5.68849C4.74767 11.9672 4.2365 12.1508 4.07183 12.3227C3.87596 12.5271 3.66667 13.1386 3.66667 14.2418V34.3729C3.66667 35.4817 3.87913 36.0996 4.07796 36.3081C4.2433 36.4815 4.75323 36.6667 5.68849 36.6667H38.3115ZM38.3115 40.3334H5.68849C1.90219 40.3334 0 38.3338 0 34.3729V14.2418C0 10.281 1.90219 8.30055 5.68849 8.30055H10.5143C11.9274 8.30055 12.3803 7.97369 13.1774 7.03154L14.6267 5.30107C15.5325 4.24357 16.4565 3.66675 18.3224 3.66675H25.5508C27.4167 3.66675 28.3407 4.24357 29.2465 5.30107L30.7139 7.03154C31.511 7.99292 31.9639 8.30055 33.377 8.30055H38.3115C42.0978 8.30055 44 10.281 44 14.2418V34.3729C44 38.3338 42.0978 40.3334 38.3115 40.3334Z" fill="white"/>
<path d="M21.989 32.0832C23.6212 32.0854 25.2173 31.6034 26.5754 30.6982C27.9336 29.793 28.9927 28.5053 29.6188 26.998C30.245 25.4907 30.4099 23.8316 30.0928 22.2305C29.7757 20.6294 28.9909 19.1584 27.8375 18.0035C26.6842 16.8486 25.2142 16.0618 23.6135 15.7426C22.0129 15.4234 20.3535 15.5861 18.8454 16.2102C17.3373 16.8343 16.0482 17.8917 15.1411 19.2487C14.2341 20.6056 13.75 22.2011 13.75 23.8332C13.75 26.0194 14.6177 28.1161 16.1625 29.663C17.7073 31.2099 19.8029 32.0803 21.989 32.0832V32.0832Z" stroke="white" stroke-width="2"/>
</g>
<defs>
<clipPath id="clip0_1461_35556">
<rect width="44" height="44" fill="white"/>
</clipPath>
</defs>
</svg>
