<svg width="18" height="15" viewBox="0 0 18 15" fill="none" xmlns="http://www.w3.org/2000/svg">
<path d="M15.6692 15C17.2174 15 17.9933 14.1821 17.9933 12.5627V4.32995C17.9933 2.71005 17.2186 1.9001 15.6692 1.9001H13.6494C13.4374 1.92505 13.2227 1.88959 13.03 1.7978C12.8372 1.70601 12.6743 1.56162 12.5601 1.38129L11.9603 0.673555C11.7838 0.445353 11.5531 0.264767 11.2892 0.148132C11.0253 0.0314967 10.7365 -0.0175073 10.4489 0.0055525H7.49273C7.20512 -0.0175073 6.91631 0.0314967 6.6524 0.148132C6.3885 0.264767 6.15784 0.445353 5.98129 0.673555L5.38826 1.38129C5.27274 1.56037 5.10965 1.70375 4.91725 1.79538C4.72485 1.88701 4.51075 1.92327 4.29891 1.9001H2.32414C0.774713 1.9006 0 2.71055 0 4.32995V12.5627C0 14.1821 0.778212 15 2.32414 15H15.6692Z" fill="white"/>
<path d="M15.6671 13.5004C16.0496 13.5004 16.2581 13.4246 16.3257 13.3537C16.407 13.2684 16.4939 13.0158 16.4939 12.5623V4.32993C16.4939 3.87879 16.4083 3.62872 16.3282 3.54513C16.2609 3.47485 16.0518 3.39976 15.6671 3.39976H13.6492C12.518 3.39976 11.9532 2.99664 11.4117 2.34554L10.8189 1.64637C10.7372 1.55131 10.7036 1.52969 10.705 1.5302C10.7033 1.52952 10.6406 1.50482 10.4487 1.50482H7.49276C7.30224 1.50482 7.23907 1.52917 7.2397 1.52856C7.23744 1.52998 7.20435 1.55164 7.12515 1.64343L6.53348 2.34986C6.0003 2.98005 5.41639 3.39976 4.29973 3.39976H2.32625C1.94151 3.39976 1.73247 3.47485 1.66513 3.54513C1.58503 3.62872 1.49944 3.87879 1.49944 4.32993V12.5623C1.49944 13.0158 1.58633 13.2684 1.66764 13.3537C1.73526 13.4246 1.94378 13.5004 2.32625 13.5004H15.6671ZM15.6671 14.9998H2.32625C0.777882 14.9998 0 14.1821 0 12.5623V4.32993C0 2.71019 0.777882 1.90032 2.32625 1.90032H4.29973C4.87759 1.90032 5.0628 1.76665 5.38877 1.38137L5.98144 0.673711C6.35187 0.241256 6.7297 0.00537109 7.49276 0.00537109H10.4487C11.2118 0.00537109 11.5896 0.241256 11.96 0.673711L12.5601 1.38137C12.8861 1.77451 13.0713 1.90032 13.6492 1.90032H15.6671C17.2155 1.90032 17.9933 2.71019 17.9933 4.32993V12.5623C17.9933 14.1821 17.2155 14.9998 15.6671 14.9998Z" fill="white"/>
<path d="M8.9923 11.6264C9.65976 11.6273 10.3125 11.4302 10.8679 11.06C11.4233 10.6898 11.8564 10.1632 12.1124 9.54685C12.3685 8.93046 12.4359 8.25197 12.3063 7.59723C12.1766 6.94249 11.8556 6.34093 11.384 5.86865C10.9123 5.39637 10.3112 5.07461 9.65664 4.94406C9.00207 4.81352 8.32349 4.88007 7.70676 5.13529C7.09003 5.39051 6.56285 5.82293 6.19194 6.37783C5.82103 6.93274 5.62305 7.5852 5.62305 8.25266C5.62305 9.14665 5.97788 10.0041 6.6096 10.6367C7.24133 11.2692 8.0983 11.6252 8.9923 11.6264Z" stroke="#3A3A3E" stroke-width="2"/>
</svg>
