<svg width="28" height="28" viewBox="0 0 28 28" fill="none" xmlns="http://www.w3.org/2000/svg">
<path d="M0 13.3023C0 15.5845 0.609599 17.945 1.74567 20.1751C1.3716 20.5925 1.30233 21.3619 1.70411 22.1183L4.36418 27.2175C4.62741 27.7261 5.22316 28 5.80505 28C6.48392 28 7.14894 27.6088 7.21821 26.8132L4.17021 20.9837C3.15883 19.0405 2.41069 16.2627 2.41069 13.3153C2.41069 6.87285 7.07966 2.53004 13.9931 2.53004C20.9065 2.53004 25.5893 6.87285 25.5893 13.3153C25.5893 16.2627 24.8273 19.0405 23.8159 20.9837L20.7679 26.8132C20.8372 27.6088 21.5022 28 22.195 28C22.763 28 23.3587 27.7261 23.6358 27.2175L26.282 22.1183C26.6838 21.3619 26.6284 20.5925 26.2543 20.1751C27.3904 17.945 28 15.5845 28 13.3023C28 5.82953 22.4998 0 13.9931 0C5.48639 0 0 5.82953 0 13.3023ZM7.57843 18.1276C7.06581 17.1365 6.08214 16.9148 5.33399 17.2017C4.50272 17.5277 3.93469 18.4667 4.54428 19.6665L8.00792 26.2785C8.5621 27.3479 9.58733 27.7261 10.5571 27.2566C11.3884 26.8654 11.6794 25.9786 11.1945 25.0396L7.57843 18.1276ZM20.4077 18.1276L16.7917 25.0396C16.3068 25.9786 16.6116 26.8654 17.4429 27.2566C18.4127 27.7261 19.424 27.3479 19.9921 26.2785L23.4419 19.6665C24.0653 18.4667 23.4834 17.5277 22.6522 17.2017C21.904 16.9148 20.9342 17.1365 20.4077 18.1276Z" fill="white"/>
</svg>
