<svg width="21" height="28" viewBox="0 0 21 28" fill="none" xmlns="http://www.w3.org/2000/svg">
<path d="M3.70813 16.9561V24.468C3.70813 26.5795 5.18629 28 7.37803 28H17.3938C19.5601 28 21 26.5795 21 24.468V3.53199C21 1.42048 19.5601 0 17.3938 0H7.37803C5.18629 0 3.70813 1.42048 3.70813 3.53199V11.0695H6.2057V4.10786C6.2057 3.13528 6.79187 2.58501 7.79854 2.58501H16.9223C17.929 2.58501 18.5152 3.13528 18.5152 4.10786V23.8921C18.5152 24.8647 17.929 25.4278 16.9223 25.4278H7.79854C6.79187 25.4278 6.2057 24.8647 6.2057 23.8921V16.9561H3.70813ZM1.07039 15.075H9.4551L11.9144 14.947L9.39138 17.1737L8.70328 17.8903C8.51214 18.0951 8.38471 18.3766 8.38471 18.6837C8.38471 19.2852 8.81796 19.7075 9.40413 19.7075C9.70995 19.7075 9.96481 19.5923 10.1687 19.3876L14.6796 14.883C14.96 14.6015 15.1001 14.2943 15.1001 14C15.1001 13.7057 14.96 13.3857 14.6796 13.117L10.1687 8.61243C9.96481 8.40768 9.70995 8.2925 9.40413 8.2925C8.81796 8.2925 8.38471 8.71481 8.38471 9.31627C8.38471 9.6234 8.51214 9.90494 8.70328 10.1097L9.39138 10.8263L11.9144 13.053L9.4551 12.925H1.07039C0.42051 12.925 0 13.4241 0 14C0 14.5759 0.42051 15.075 1.07039 15.075Z" fill="white"/>
</svg>
