<svg width="21" height="29" viewBox="0 0 21 29" fill="none" xmlns="http://www.w3.org/2000/svg">
<path d="M9.22186 25.1451C3.77945 24.637 0 20.8534 0 15.3183V12.6845C0 11.9759 0.590969 11.4277 1.31937 11.4277C2.04777 11.4277 2.63874 11.9759 2.63874 12.6845V15.2247C2.63874 19.7838 5.81348 22.7786 10.5 22.7786C15.1865 22.7786 16 20.4995 17 19.9995L19 20.9995C19 21.4995 17.2205 24.637 11.7781 25.1451V27.8591C11.7781 27.8591 11.5898 28.9994 10.5 28.9994C9.4102 28.9994 9.22186 27.8591 9.22186 27.8591V25.1451Z" fill="#FF4646"/>
<path d="M21.0001 12.6845V15.3183C21 17.4995 20.5 18.4995 20 19.4995L18 17.4995C18.1204 17.3722 18.3613 16.3389 18.3613 15.2247V12.6845C18.3613 11.9759 18.966 11.4277 19.6944 11.4277C20.4228 11.4277 21.0001 11.9759 21.0001 12.6845Z" fill="#FF4646"/>
<path d="M15.3513 5.00027V14.7885L5.64844 5.00027C5.64844 2.0322 7.70996 0 10.4999 0C13.2898 0 15.3513 2.0322 15.3513 5.00027Z" fill="#FF4646"/>
<path d="M10.5001 21.0115C7.7102 21.0115 5.64868 18.9793 5.64868 16.0112L5.64868 9.41446C5.64868 9.14924 5.54333 8.89489 5.35579 8.70735L0.5 3.85156C0.223858 3.57542 0.223858 3.1277 0.5 2.85156C0.776142 2.57542 1.22386 2.57542 1.5 2.85156L14.856 16.2076L14.8583 16.2098L20.5 21.8516C20.7761 22.1277 20.7761 22.5754 20.5 22.8516C20.2239 23.1277 19.7761 23.1277 19.5 22.8516L14.8294 18.1809C14.1847 19.805 12.6082 21.0115 10.5001 21.0115Z" fill="#FF4646"/>
</svg>
