<svg width="21" height="28" viewBox="0 0 21 28" fill="none" xmlns="http://www.w3.org/2000/svg">
<path d="M10.5 19.0117C13.2899 19.0117 15.3514 16.9795 15.3514 14.0115V5.00027C15.3514 2.0322 13.2899 0 10.5 0C7.71008 0 5.64856 2.0322 5.64856 5.00027V14.0115C5.64856 16.9795 7.71008 19.0117 10.5 19.0117ZM0 14.319C0 19.854 3.77945 23.6377 9.22186 24.1457V26.8598C9.22186 26.8598 9.4102 28 10.5 28C11.5898 28 11.7781 26.8598 11.7781 26.8598V24.1457C17.2205 23.6377 21 19.854 21 14.319V11.6851C21 10.9765 20.4228 10.4284 19.6944 10.4284C18.966 10.4284 18.3613 10.9765 18.3613 11.6851V14.2254C18.3613 18.7844 15.1865 21.7793 10.5 21.7793C5.81348 21.7793 2.63874 18.7844 2.63874 14.2254V11.6851C2.63874 10.9765 2.04777 10.4284 1.31937 10.4284C0.590969 10.4284 0 10.9765 0 11.6851V14.319Z" fill="white"/>
</svg>
