<svg width="24" height="24" viewBox="0 0 24 24" fill="none" xmlns="http://www.w3.org/2000/svg">
<path d="M11.9942 24C18.5713 24 24 18.5687 24 12C24 5.43133 18.5597 0 11.9826 0C5.41711 0 0 5.43133 0 12C0 18.5687 5.42871 24 11.9942 24ZM11.9942 21.6093C6.66989 21.6093 2.41276 17.3269 2.41276 12C2.41276 6.67311 6.66989 2.40232 11.9826 2.40232C17.3069 2.40232 21.5872 6.67311 21.5988 12C21.6104 17.3269 17.3185 21.6093 11.9942 21.6093ZM8.63026 10.9323C9.31464 10.9323 9.89464 10.3288 9.89464 9.48162C9.89464 8.63443 9.31464 8.03095 8.63026 8.03095C7.95747 8.03095 7.38908 8.63443 7.38908 9.48162C7.38908 10.3288 7.95747 10.9323 8.63026 10.9323ZM15.3929 10.9323C16.0773 10.9323 16.6573 10.3288 16.6573 9.48162C16.6573 8.63443 16.0773 8.03095 15.3929 8.03095C14.7086 8.03095 14.1518 8.63443 14.1518 9.48162C14.1518 10.3288 14.7086 10.9323 15.3929 10.9323ZM7.92267 15.3075C7.92267 16.0851 9.55824 17.6983 11.9826 17.6983C14.4186 17.6983 16.0541 16.0851 16.0541 15.3075C16.0541 15.029 15.7757 14.8897 15.5205 15.0174C14.6738 15.4584 13.6762 15.9807 11.9826 15.9807C10.3006 15.9807 9.30305 15.4584 8.45626 15.0174C8.20106 14.8897 7.92267 15.029 7.92267 15.3075Z" fill="white"/>
</svg>
